# xmcd
#
# Track frame offsets:
#	150
#	73272
#	94032
#	111165
#	132060
#	154827
#	175002
#	195557
#	218690
#	239505
#	260530
#	283107
#
# Disc length: 4070 seconds
#
# Revision: 3
# Processed by: cddbd v1.5.2PL0 Copyright (c) Steve Scherf et al.
# Submitted via: EasyCDDAExtractor 15.3.0.1
#
DISCID=ad0fe40c
DTITLE=Varios Artistas - Merengue Madness
DYEAR=1995
DGENRE=Latin
TTITLE0=Varios Artistas - Merengue Madness ''Extended Madness Mix''
TTITLE1=Varios Artistas - Merengue Madness ''Radio Madness Edit''
TTITLE2=Rikarena - ¡Ay!
TTITLE3=Kaos - Puerto Rico
TTITLE4=Los Toros Band - Llego Tu Marido
TTITLE5=Grupo Mania - Cuantas Mujeres
TTITLE6=Zafra Negra - Ajena
TTITLE7=Toño Rosario - Dejala
TTITLE8=Cesar Flores - Salvaje
TTITLE9=Eddy Herrera - La Bailadora
TTITLE10=Proyecto Uno - El Tiburon
TTITLE11=La Banda Gorda - La Mujeres Modernas
EXTD=
EXTT0=
EXTT1=
EXTT2=
EXTT3=
EXTT4=
EXTT5=
EXTT6=
EXTT7=
EXTT8=
EXTT9=
EXTT10=
EXTT11=
PLAYORDER=
